<svg width="312" height="104" viewBox="0 0 312 104" fill="none" xmlns="http://www.w3.org/2000/svg">
<g clip-path="url(#clip0_1614_6611)">
<path d="M0 12C0 5.37259 5.37258 0 12 0H300C306.627 0 312 5.37258 312 12V92C312 98.6274 306.627 104 300 104H12C5.37259 104 0 98.6274 0 92V12Z" fill="#254EDB"/>
<circle opacity="0.4" cx="296" cy="120" r="120" fill="white"/>
<circle opacity="0.4" cx="272" cy="104" r="120" fill="white"/>
<circle opacity="0.4" cx="320" cy="132" r="120" fill="white"/>
<path d="M16.98 33V22.92H21.145C21.243 22.92 21.369 22.9247 21.523 22.934C21.677 22.9387 21.8193 22.9527 21.95 22.976C22.5333 23.0647 23.014 23.2583 23.392 23.557C23.7747 23.8557 24.057 24.2337 24.239 24.691C24.4257 25.1437 24.519 25.6477 24.519 26.203C24.519 26.7537 24.4257 27.2577 24.239 27.715C24.0523 28.1677 23.7677 28.5433 23.385 28.842C23.007 29.1407 22.5287 29.3343 21.95 29.423C21.8193 29.4417 21.6747 29.4557 21.516 29.465C21.362 29.4743 21.2383 29.479 21.145 29.479H18.667V33H16.98ZM18.667 27.904H21.075C21.1683 27.904 21.2733 27.8993 21.39 27.89C21.5067 27.8807 21.614 27.862 21.712 27.834C21.992 27.764 22.2113 27.6403 22.37 27.463C22.5333 27.2857 22.6477 27.085 22.713 26.861C22.783 26.637 22.818 26.4177 22.818 26.203C22.818 25.9883 22.783 25.769 22.713 25.545C22.6477 25.3163 22.5333 25.1133 22.37 24.936C22.2113 24.7587 21.992 24.635 21.712 24.565C21.614 24.537 21.5067 24.5207 21.39 24.516C21.2733 24.5067 21.1683 24.502 21.075 24.502H18.667V27.904ZM26.1214 33V25.44H27.6124V27.281L27.4304 27.043C27.5237 26.791 27.6474 26.5623 27.8014 26.357C27.9601 26.147 28.1491 25.9743 28.3684 25.839C28.5551 25.713 28.7604 25.615 28.9844 25.545C29.2131 25.4703 29.4464 25.426 29.6844 25.412C29.9224 25.3933 30.1534 25.4027 30.3774 25.44V27.015C30.1534 26.9497 29.8944 26.9287 29.6004 26.952C29.3111 26.9753 29.0497 27.057 28.8164 27.197C28.5831 27.323 28.3917 27.484 28.2424 27.68C28.0977 27.876 27.9904 28.1 27.9204 28.352C27.8504 28.5993 27.8154 28.8677 27.8154 29.157V33H26.1214ZM35.2135 33.21C34.4482 33.21 33.7762 33.0443 33.1975 32.713C32.6188 32.3817 32.1662 31.922 31.8395 31.334C31.5175 30.746 31.3565 30.0693 31.3565 29.304C31.3565 28.478 31.5152 27.7617 31.8325 27.155C32.1498 26.5437 32.5908 26.07 33.1555 25.734C33.7202 25.398 34.3735 25.23 35.1155 25.23C35.8995 25.23 36.5645 25.4143 37.1105 25.783C37.6612 26.147 38.0695 26.6627 38.3355 27.33C38.6015 27.9973 38.7018 28.7837 38.6365 29.689H36.9635V29.073C36.9588 28.2517 36.8142 27.652 36.5295 27.274C36.2448 26.896 35.7968 26.707 35.1855 26.707C34.4948 26.707 33.9815 26.9217 33.6455 27.351C33.3095 27.7757 33.1415 28.3987 33.1415 29.22C33.1415 29.9853 33.3095 30.578 33.6455 30.998C33.9815 31.418 34.4715 31.628 35.1155 31.628C35.5308 31.628 35.8878 31.537 36.1865 31.355C36.4898 31.1683 36.7232 30.9 36.8865 30.55L38.5525 31.054C38.2632 31.7353 37.8152 32.265 37.2085 32.643C36.6065 33.021 35.9415 33.21 35.2135 33.21ZM32.6095 29.689V28.415H37.8105V29.689H32.6095ZM42.1689 33L39.4249 25.44H41.1119L43.0159 30.921L44.9129 25.44H46.6069L43.8629 33H42.1689ZM51.2268 33.21C50.4614 33.21 49.7894 33.0443 49.2108 32.713C48.6321 32.3817 48.1794 31.922 47.8528 31.334C47.5308 30.746 47.3698 30.0693 47.3698 29.304C47.3698 28.478 47.5284 27.7617 47.8458 27.155C48.1631 26.5437 48.6041 26.07 49.1688 25.734C49.7334 25.398 50.3868 25.23 51.1288 25.23C51.9128 25.23 52.5778 25.4143 53.1238 25.783C53.6744 26.147 54.0828 26.6627 54.3488 27.33C54.6148 27.9973 54.7151 28.7837 54.6498 29.689H52.9768V29.073C52.9721 28.2517 52.8274 27.652 52.5428 27.274C52.2581 26.896 51.8101 26.707 51.1988 26.707C50.5081 26.707 49.9948 26.9217 49.6588 27.351C49.3228 27.7757 49.1548 28.3987 49.1548 29.22C49.1548 29.9853 49.3228 30.578 49.6588 30.998C49.9948 31.418 50.4848 31.628 51.1288 31.628C51.5441 31.628 51.9011 31.537 52.1998 31.355C52.5031 31.1683 52.7364 30.9 52.8998 30.55L54.5658 31.054C54.2764 31.7353 53.8284 32.265 53.2218 32.643C52.6198 33.021 51.9548 33.21 51.2268 33.21ZM48.6228 29.689V28.415H53.8238V29.689H48.6228ZM61.4356 33V29.36C61.4356 29.122 61.4192 28.8583 61.3866 28.569C61.3539 28.2797 61.2769 28.002 61.1556 27.736C61.0389 27.4653 60.8616 27.2437 60.6236 27.071C60.3902 26.8983 60.0729 26.812 59.6716 26.812C59.4569 26.812 59.2446 26.847 59.0346 26.917C58.8246 26.987 58.6332 27.1083 58.4606 27.281C58.2926 27.449 58.1572 27.6823 58.0546 27.981C57.9519 28.275 57.9006 28.653 57.9006 29.115L56.8996 28.688C56.8996 28.044 57.0232 27.4607 57.2706 26.938C57.5226 26.4153 57.8912 26 58.3766 25.692C58.8619 25.3793 59.4592 25.223 60.1686 25.223C60.7286 25.223 61.1906 25.3163 61.5546 25.503C61.9186 25.6897 62.2079 25.9277 62.4226 26.217C62.6372 26.5063 62.7959 26.8143 62.8986 27.141C63.0012 27.4677 63.0666 27.778 63.0946 28.072C63.1272 28.3613 63.1436 28.597 63.1436 28.779V33H61.4356ZM56.1926 33V25.44H57.6976V27.785H57.9006V33H56.1926ZM69.6012 33C69.1019 33.0933 68.6119 33.133 68.1312 33.119C67.6552 33.1097 67.2282 33.0233 66.8502 32.86C66.4722 32.692 66.1852 32.4283 65.9892 32.069C65.8166 31.7423 65.7256 31.4087 65.7162 31.068C65.7069 30.7273 65.7022 30.3423 65.7022 29.913V23.34H67.3822V29.815C67.3822 30.1183 67.3846 30.3843 67.3892 30.613C67.3986 30.8417 67.4476 31.0283 67.5362 31.173C67.7042 31.453 67.9726 31.6093 68.3412 31.642C68.7099 31.6747 69.1299 31.656 69.6012 31.586V33ZM64.3302 26.763V25.44H69.6012V26.763H64.3302ZM78.8606 33C78.3613 33.0933 77.8713 33.133 77.3906 33.119C76.9146 33.1097 76.4876 33.0233 76.1096 32.86C75.7316 32.692 75.4446 32.4283 75.2486 32.069C75.0759 31.7423 74.9849 31.4087 74.9756 31.068C74.9663 30.7273 74.9616 30.3423 74.9616 29.913V23.34H76.6416V29.815C76.6416 30.1183 76.6439 30.3843 76.6486 30.613C76.6579 30.8417 76.7069 31.0283 76.7956 31.173C76.9636 31.453 77.2319 31.6093 77.6006 31.642C77.9693 31.6747 78.3893 31.656 78.8606 31.586V33ZM73.5896 26.763V25.44H78.8606V26.763H73.5896ZM85.9152 33V29.36C85.9152 29.122 85.8989 28.8583 85.8662 28.569C85.8336 28.2797 85.7566 28.002 85.6352 27.736C85.5186 27.4653 85.3412 27.2437 85.1032 27.071C84.8699 26.8983 84.5526 26.812 84.1512 26.812C83.9366 26.812 83.7242 26.847 83.5142 26.917C83.3042 26.987 83.1129 27.1083 82.9402 27.281C82.7722 27.449 82.6369 27.6823 82.5342 27.981C82.4316 28.275 82.3802 28.653 82.3802 29.115L81.3792 28.688C81.3792 28.044 81.5029 27.4607 81.7502 26.938C82.0022 26.4153 82.3709 26 82.8562 25.692C83.3416 25.3793 83.9389 25.223 84.6482 25.223C85.2082 25.223 85.6702 25.3163 86.0342 25.503C86.3982 25.6897 86.6876 25.9277 86.9022 26.217C87.1169 26.5063 87.2756 26.8143 87.3782 27.141C87.4809 27.4677 87.5462 27.778 87.5742 28.072C87.6069 28.3613 87.6232 28.597 87.6232 28.779V33H85.9152ZM80.6722 33V22.92H82.1772V28.226H82.3802V33H80.6722ZM93.0869 33.21C92.3216 33.21 91.6496 33.0443 91.0709 32.713C90.4923 32.3817 90.0396 31.922 89.7129 31.334C89.3909 30.746 89.2299 30.0693 89.2299 29.304C89.2299 28.478 89.3886 27.7617 89.7059 27.155C90.0233 26.5437 90.4643 26.07 91.0289 25.734C91.5936 25.398 92.2469 25.23 92.9889 25.23C93.7729 25.23 94.4379 25.4143 94.9839 25.783C95.5346 26.147 95.9429 26.6627 96.2089 27.33C96.4749 27.9973 96.5753 28.7837 96.5099 29.689H94.8369V29.073C94.8323 28.2517 94.6876 27.652 94.4029 27.274C94.1183 26.896 93.6703 26.707 93.0589 26.707C92.3683 26.707 91.8549 26.9217 91.5189 27.351C91.1829 27.7757 91.0149 28.3987 91.0149 29.22C91.0149 29.9853 91.1829 30.578 91.5189 30.998C91.8549 31.418 92.3449 31.628 92.9889 31.628C93.4043 31.628 93.7613 31.537 94.0599 31.355C94.3633 31.1683 94.5966 30.9 94.7599 30.55L96.4259 31.054C96.1366 31.7353 95.6886 32.265 95.0819 32.643C94.4799 33.021 93.8149 33.21 93.0869 33.21ZM90.4829 29.689V28.415H95.6839V29.689H90.4829ZM104.194 33.21C103.26 33.21 102.502 33 101.919 32.58C101.335 32.16 100.981 31.5697 100.855 30.809L102.577 30.543C102.665 30.9163 102.861 31.2103 103.165 31.425C103.468 31.6397 103.851 31.747 104.313 31.747C104.719 31.747 105.031 31.6677 105.251 31.509C105.475 31.3457 105.587 31.124 105.587 30.844C105.587 30.6713 105.545 30.5337 105.461 30.431C105.381 30.3237 105.204 30.221 104.929 30.123C104.653 30.025 104.231 29.9013 103.662 29.752C103.027 29.584 102.523 29.4043 102.15 29.213C101.776 29.017 101.508 28.786 101.345 28.52C101.181 28.254 101.1 27.932 101.1 27.554C101.1 27.0827 101.223 26.672 101.471 26.322C101.718 25.972 102.063 25.7037 102.507 25.517C102.95 25.3257 103.473 25.23 104.075 25.23C104.663 25.23 105.183 25.321 105.636 25.503C106.093 25.685 106.462 25.944 106.742 26.28C107.022 26.616 107.194 27.0103 107.26 27.463L105.538 27.771C105.496 27.449 105.349 27.1947 105.097 27.008C104.849 26.8213 104.518 26.7163 104.103 26.693C103.706 26.6697 103.386 26.7303 103.144 26.875C102.901 27.015 102.78 27.2133 102.78 27.47C102.78 27.6147 102.829 27.7383 102.927 27.841C103.025 27.9437 103.221 28.0463 103.515 28.149C103.813 28.2517 104.257 28.3777 104.845 28.527C105.447 28.681 105.927 28.8583 106.287 29.059C106.651 29.255 106.912 29.4907 107.071 29.766C107.234 30.0413 107.316 30.375 107.316 30.767C107.316 31.5277 107.038 32.125 106.483 32.559C105.932 32.993 105.169 33.21 104.194 33.21ZM112.682 33.21C111.944 33.21 111.326 33.035 110.827 32.685C110.327 32.335 109.952 31.859 109.7 31.257C109.448 30.6503 109.322 29.9713 109.322 29.22C109.322 28.4593 109.448 27.778 109.7 27.176C109.952 26.574 110.32 26.1003 110.806 25.755C111.296 25.405 111.9 25.23 112.619 25.23C113.333 25.23 113.951 25.405 114.474 25.755C115.001 26.1003 115.409 26.574 115.699 27.176C115.988 27.7733 116.133 28.4547 116.133 29.22C116.133 29.976 115.99 30.655 115.706 31.257C115.421 31.859 115.02 32.335 114.502 32.685C113.984 33.035 113.377 33.21 112.682 33.21ZM109.035 36.36V25.44H110.526V30.746H110.736V36.36H109.035ZM112.423 31.698C112.861 31.698 113.223 31.5883 113.508 31.369C113.792 31.1497 114.002 30.8533 114.138 30.48C114.278 30.102 114.348 29.682 114.348 29.22C114.348 28.7627 114.278 28.3473 114.138 27.974C113.998 27.596 113.781 27.2973 113.487 27.078C113.193 26.854 112.819 26.742 112.367 26.742C111.937 26.742 111.587 26.847 111.317 27.057C111.046 27.2623 110.845 27.5517 110.715 27.925C110.589 28.2937 110.526 28.7253 110.526 29.22C110.526 29.71 110.589 30.1417 110.715 30.515C110.845 30.8883 111.048 31.18 111.324 31.39C111.604 31.5953 111.97 31.698 112.423 31.698ZM117.876 33V25.44H119.367V27.281L119.185 27.043C119.278 26.791 119.402 26.5623 119.556 26.357C119.714 26.147 119.903 25.9743 120.123 25.839C120.309 25.713 120.515 25.615 120.739 25.545C120.967 25.4703 121.201 25.426 121.439 25.412C121.677 25.3933 121.908 25.4027 122.132 25.44V27.015C121.908 26.9497 121.649 26.9287 121.355 26.952C121.065 26.9753 120.804 27.057 120.571 27.197C120.337 27.323 120.146 27.484 119.997 27.68C119.852 27.876 119.745 28.1 119.675 28.352C119.605 28.5993 119.57 28.8677 119.57 29.157V33H117.876ZM126.968 33.21C126.202 33.21 125.53 33.0443 124.952 32.713C124.373 32.3817 123.92 31.922 123.594 31.334C123.272 30.746 123.111 30.0693 123.111 29.304C123.111 28.478 123.269 27.7617 123.587 27.155C123.904 26.5437 124.345 26.07 124.91 25.734C125.474 25.398 126.128 25.23 126.87 25.23C127.654 25.23 128.319 25.4143 128.865 25.783C129.415 26.147 129.824 26.6627 130.09 27.33C130.356 27.9973 130.456 28.7837 130.391 29.689H128.718V29.073C128.713 28.2517 128.568 27.652 128.284 27.274C127.999 26.896 127.551 26.707 126.94 26.707C126.249 26.707 125.736 26.9217 125.4 27.351C125.064 27.7757 124.896 28.3987 124.896 29.22C124.896 29.9853 125.064 30.578 125.4 30.998C125.736 31.418 126.226 31.628 126.87 31.628C127.285 31.628 127.642 31.537 127.941 31.355C128.244 31.1683 128.477 30.9 128.641 30.55L130.307 31.054C130.017 31.7353 129.569 32.265 128.963 32.643C128.361 33.021 127.696 33.21 126.968 33.21ZM124.364 29.689V28.415H129.565V29.689H124.364ZM134.13 33.21C133.584 33.21 133.122 33.1073 132.744 32.902C132.366 32.692 132.079 32.4143 131.883 32.069C131.692 31.7237 131.596 31.3433 131.596 30.928C131.596 30.564 131.657 30.2373 131.778 29.948C131.899 29.654 132.086 29.402 132.338 29.192C132.59 28.9773 132.917 28.8023 133.318 28.667C133.621 28.569 133.976 28.4803 134.382 28.401C134.793 28.3217 135.236 28.2493 135.712 28.184C136.193 28.114 136.694 28.0393 137.217 27.96L136.615 28.303C136.62 27.7803 136.503 27.3953 136.265 27.148C136.027 26.9007 135.626 26.777 135.061 26.777C134.72 26.777 134.391 26.8563 134.074 27.015C133.757 27.1737 133.535 27.4467 133.409 27.834L131.869 27.351C132.056 26.7117 132.41 26.1983 132.933 25.811C133.46 25.4237 134.17 25.23 135.061 25.23C135.733 25.23 136.323 25.3397 136.832 25.559C137.345 25.7783 137.726 26.1377 137.973 26.637C138.108 26.903 138.19 27.176 138.218 27.456C138.246 27.7313 138.26 28.0323 138.26 28.359V33H136.783V31.362L137.028 31.628C136.687 32.174 136.288 32.5753 135.831 32.832C135.378 33.084 134.811 33.21 134.13 33.21ZM134.466 31.866C134.849 31.866 135.175 31.7983 135.446 31.663C135.717 31.5277 135.931 31.362 136.09 31.166C136.253 30.97 136.363 30.7857 136.419 30.613C136.508 30.3983 136.557 30.1533 136.566 29.878C136.58 29.598 136.587 29.3717 136.587 29.199L137.105 29.353C136.596 29.4323 136.16 29.5023 135.796 29.563C135.432 29.6237 135.119 29.682 134.858 29.738C134.597 29.7893 134.366 29.8477 134.165 29.913C133.969 29.983 133.803 30.0647 133.668 30.158C133.533 30.2513 133.428 30.3587 133.353 30.48C133.283 30.6013 133.248 30.7437 133.248 30.907C133.248 31.0937 133.295 31.2593 133.388 31.404C133.481 31.544 133.617 31.656 133.794 31.74C133.976 31.824 134.2 31.866 134.466 31.866ZM143.313 33.21C142.618 33.21 142.011 33.035 141.493 32.685C140.975 32.335 140.574 31.859 140.289 31.257C140.005 30.655 139.862 29.976 139.862 29.22C139.862 28.4547 140.005 27.7733 140.289 27.176C140.579 26.574 140.987 26.1003 141.514 25.755C142.042 25.405 142.662 25.23 143.376 25.23C144.095 25.23 144.697 25.405 145.182 25.755C145.672 26.1003 146.043 26.574 146.295 27.176C146.547 27.778 146.673 28.4593 146.673 29.22C146.673 29.9713 146.547 30.6503 146.295 31.257C146.043 31.859 145.668 32.335 145.168 32.685C144.669 33.035 144.051 33.21 143.313 33.21ZM143.572 31.698C144.025 31.698 144.389 31.5953 144.664 31.39C144.944 31.18 145.147 30.8883 145.273 30.515C145.404 30.1417 145.469 29.71 145.469 29.22C145.469 28.7253 145.404 28.2937 145.273 27.925C145.147 27.5517 144.949 27.2623 144.678 27.057C144.408 26.847 144.058 26.742 143.628 26.742C143.176 26.742 142.802 26.854 142.508 27.078C142.214 27.2973 141.997 27.596 141.857 27.974C141.717 28.3473 141.647 28.7627 141.647 29.22C141.647 29.682 141.715 30.102 141.85 30.48C141.99 30.8533 142.203 31.1497 142.487 31.369C142.772 31.5883 143.134 31.698 143.572 31.698ZM145.469 33V27.694H145.259V22.92H146.96V33H145.469ZM20.319 57.21C19.563 57.21 18.9027 57.0397 18.338 56.699C17.7733 56.3583 17.3347 55.8893 17.022 55.292C16.714 54.69 16.56 53.9993 16.56 53.22C16.56 52.4267 16.7187 51.7313 17.036 51.134C17.3533 50.5367 17.7943 50.07 18.359 49.734C18.9237 49.398 19.577 49.23 20.319 49.23C21.0797 49.23 21.7423 49.4003 22.307 49.741C22.8717 50.0817 23.3103 50.553 23.623 51.155C23.9357 51.7523 24.092 52.4407 24.092 53.22C24.092 54.004 23.9333 54.697 23.616 55.299C23.3033 55.8963 22.8647 56.3653 22.3 56.706C21.7353 57.042 21.075 57.21 20.319 57.21ZM20.319 55.628C20.991 55.628 21.4903 55.404 21.817 54.956C22.1437 54.508 22.307 53.9293 22.307 53.22C22.307 52.4873 22.1413 51.904 21.81 51.47C21.4787 51.0313 20.9817 50.812 20.319 50.812C19.8663 50.812 19.493 50.9147 19.199 51.12C18.9097 51.3207 18.695 51.603 18.555 51.967C18.415 52.3263 18.345 52.744 18.345 53.22C18.345 53.9527 18.5107 54.5383 18.842 54.977C19.178 55.411 19.6703 55.628 20.319 55.628ZM26.4923 57V49.321C26.4923 49.1297 26.4993 48.9197 26.5133 48.691C26.5273 48.4577 26.567 48.2267 26.6323 47.998C26.6976 47.7693 26.8166 47.5617 26.9893 47.375C27.204 47.137 27.435 46.9737 27.6823 46.885C27.9343 46.7917 28.1816 46.7403 28.4243 46.731C28.667 46.717 28.8793 46.71 29.0613 46.71H30.0063V48.082H29.1313C28.8093 48.082 28.569 48.1637 28.4103 48.327C28.2563 48.4857 28.1793 48.6957 28.1793 48.957V57H26.4923ZM25.2743 50.763V49.44H30.0063V50.763H25.2743ZM38.591 57.21C37.583 57.21 36.7197 56.9907 36.001 56.552C35.2824 56.1087 34.7294 55.4927 34.342 54.704C33.9594 53.9153 33.768 53.0007 33.768 51.96C33.768 50.9193 33.9594 50.0047 34.342 49.216C34.7294 48.4273 35.2824 47.8137 36.001 47.375C36.7197 46.9317 37.583 46.71 38.591 46.71C39.753 46.71 40.7214 47.0017 41.496 47.585C42.2707 48.1637 42.8144 48.9453 43.127 49.93L41.426 50.399C41.23 49.741 40.8964 49.2277 40.425 48.859C39.9537 48.4857 39.3424 48.299 38.591 48.299C37.9144 48.299 37.3497 48.4507 36.897 48.754C36.449 49.0573 36.1107 49.4843 35.882 50.035C35.658 50.581 35.5437 51.2227 35.539 51.96C35.539 52.6973 35.651 53.3413 35.875 53.892C36.1037 54.438 36.4444 54.8627 36.897 55.166C37.3497 55.4693 37.9144 55.621 38.591 55.621C39.3424 55.621 39.9537 55.4343 40.425 55.061C40.8964 54.6877 41.23 54.1743 41.426 53.521L43.127 53.99C42.8144 54.9747 42.2707 55.7587 41.496 56.342C40.7214 56.9207 39.753 57.21 38.591 57.21ZM49.127 57.21C48.119 57.21 47.2557 56.9907 46.537 56.552C45.8183 56.1087 45.2653 55.4927 44.878 54.704C44.4953 53.9153 44.304 53.0007 44.304 51.96C44.304 50.9193 44.4953 50.0047 44.878 49.216C45.2653 48.4273 45.8183 47.8137 46.537 47.375C47.2557 46.9317 48.119 46.71 49.127 46.71C50.135 46.71 50.9983 46.9317 51.717 47.375C52.4403 47.8137 52.9933 48.4273 53.376 49.216C53.7633 50.0047 53.957 50.9193 53.957 51.96C53.957 53.0007 53.7633 53.9153 53.376 54.704C52.9933 55.4927 52.4403 56.1087 51.717 56.552C50.9983 56.9907 50.135 57.21 49.127 57.21ZM49.127 55.621C49.8037 55.6257 50.366 55.4763 50.814 55.173C51.2667 54.8697 51.605 54.4427 51.829 53.892C52.0577 53.3413 52.172 52.6973 52.172 51.96C52.172 51.2227 52.0577 50.5833 51.829 50.042C51.605 49.496 51.2667 49.0713 50.814 48.768C50.366 48.4647 49.8037 48.3083 49.127 48.299C48.4503 48.2943 47.888 48.4437 47.44 48.747C46.992 49.0503 46.6537 49.4773 46.425 50.028C46.201 50.5787 46.089 51.2227 46.089 51.96C46.089 52.6973 46.201 53.339 46.425 53.885C46.649 54.4263 46.985 54.8487 47.433 55.152C47.8857 55.4553 48.4503 55.6117 49.127 55.621ZM57.3945 57L54.2165 46.92H55.9525L58.6125 55.362L61.3075 46.92H63.0435L59.8655 57H57.3945ZM64.4352 57V46.92H66.1222V57H64.4352ZM68.4191 57V46.92H71.6321C71.7161 46.92 71.8817 46.9223 72.1291 46.927C72.3811 46.9317 72.6237 46.948 72.8571 46.976C73.6551 47.0787 74.3294 47.3633 74.8801 47.83C75.4354 48.292 75.8554 48.8823 76.1401 49.601C76.4247 50.3197 76.5671 51.106 76.5671 51.96C76.5671 52.814 76.4247 53.6003 76.1401 54.319C75.8554 55.0377 75.4354 55.6303 74.8801 56.097C74.3294 56.559 73.6551 56.8413 72.8571 56.944C72.6284 56.972 72.3881 56.9883 72.1361 56.993C71.8841 56.9977 71.7161 57 71.6321 57H68.4191ZM70.1341 55.411H71.6321C71.7721 55.411 71.9494 55.4063 72.1641 55.397C72.3834 55.3877 72.5771 55.3667 72.7451 55.334C73.2211 55.2453 73.6084 55.033 73.9071 54.697C74.2057 54.361 74.4251 53.9527 74.5651 53.472C74.7097 52.9913 74.7821 52.4873 74.7821 51.96C74.7821 51.414 74.7097 50.9007 74.5651 50.42C74.4204 49.9393 74.1964 49.5357 73.8931 49.209C73.5944 48.8823 73.2117 48.6747 72.7451 48.586C72.5771 48.5487 72.3834 48.5277 72.1641 48.523C71.9494 48.5137 71.7721 48.509 71.6321 48.509H70.1341V55.411ZM78.2818 53.248V51.925H82.4818V53.248H78.2818ZM86.2507 57V48.761L84.3607 49.916V48.054L86.2507 46.92H87.9727V57H86.2507ZM94.0944 46.724C94.7524 46.724 95.345 46.8803 95.8724 47.193C96.3997 47.501 96.815 47.9303 97.1184 48.481C97.4264 49.027 97.5804 49.657 97.5804 50.371V53.444C97.5804 54.2047 97.4264 54.8697 97.1184 55.439C96.815 56.0037 96.388 56.44 95.8374 56.748C95.2867 57.056 94.6427 57.21 93.9054 57.21C93.3967 57.21 92.916 57.1237 92.4634 56.951C92.0107 56.7737 91.6047 56.503 91.2454 56.139L92.4564 54.956C92.6384 55.166 92.8554 55.3317 93.1074 55.453C93.364 55.5697 93.63 55.628 93.9054 55.628C94.2974 55.628 94.6404 55.537 94.9344 55.355C95.2284 55.1683 95.457 54.928 95.6204 54.634C95.7837 54.3353 95.8654 54.0157 95.8654 53.675V52.002L96.1664 52.338C95.8817 52.674 95.5364 52.9377 95.1304 53.129C94.7244 53.3157 94.2974 53.409 93.8494 53.409C93.2194 53.409 92.6594 53.2643 92.1694 52.975C91.684 52.6857 91.3014 52.2937 91.0214 51.799C90.746 51.2997 90.6084 50.735 90.6084 50.105C90.6084 49.475 90.767 48.9057 91.0844 48.397C91.4017 47.8837 91.824 47.4777 92.3514 47.179C92.8834 46.8757 93.4644 46.724 94.0944 46.724ZM94.0944 48.334C93.7677 48.334 93.469 48.4133 93.1984 48.572C92.9277 48.7307 92.713 48.9453 92.5544 49.216C92.3957 49.482 92.3164 49.7783 92.3164 50.105C92.3164 50.4317 92.3934 50.7303 92.5474 51.001C92.706 51.2717 92.9184 51.4863 93.1844 51.645C93.455 51.8037 93.7537 51.883 94.0804 51.883C94.407 51.883 94.7057 51.8037 94.9764 51.645C95.247 51.4863 95.4617 51.2717 95.6204 51.001C95.7837 50.7303 95.8654 50.4317 95.8654 50.105C95.8654 49.7877 95.786 49.496 95.6274 49.23C95.4687 48.9593 95.254 48.7423 94.9834 48.579C94.7174 48.4157 94.421 48.334 94.0944 48.334ZM105.005 57L101.827 46.92H103.563L106.223 55.362L108.918 46.92H110.654L107.476 57H105.005ZM111.773 48.292V46.745H113.46V48.292H111.773ZM111.773 57V49.44H113.46V57H111.773ZM115.757 57V49.44H117.248V51.281L117.066 51.043C117.159 50.791 117.283 50.5623 117.437 50.357C117.595 50.147 117.784 49.9743 118.004 49.839C118.19 49.713 118.396 49.615 118.62 49.545C118.848 49.4703 119.082 49.426 119.32 49.412C119.558 49.3933 119.789 49.4027 120.013 49.44V51.015C119.789 50.9497 119.53 50.9287 119.236 50.952C118.946 50.9753 118.685 51.057 118.452 51.197C118.218 51.323 118.027 51.484 117.878 51.68C117.733 51.876 117.626 52.1 117.556 52.352C117.486 52.5993 117.451 52.8677 117.451 53.157V57H115.757ZM124.383 57.217C123.823 57.217 123.361 57.1237 122.997 56.937C122.633 56.7503 122.344 56.5123 122.129 56.223C121.915 55.9337 121.756 55.6257 121.653 55.299C121.551 54.9723 121.483 54.6643 121.45 54.375C121.422 54.081 121.408 53.843 121.408 53.661V49.44H123.116V53.08C123.116 53.3133 123.133 53.577 123.165 53.871C123.198 54.1603 123.273 54.4403 123.389 54.711C123.511 54.977 123.688 55.1963 123.921 55.369C124.159 55.5417 124.479 55.628 124.88 55.628C125.095 55.628 125.307 55.593 125.517 55.523C125.727 55.453 125.916 55.334 126.084 55.166C126.257 54.9933 126.395 54.7577 126.497 54.459C126.6 54.1603 126.651 53.7823 126.651 53.325L127.652 53.752C127.652 54.396 127.526 54.9793 127.274 55.502C127.027 56.0247 126.661 56.4423 126.175 56.755C125.69 57.063 125.093 57.217 124.383 57.217ZM126.854 57V54.655H126.651V49.44H128.345V57H126.854ZM133.431 57.21C132.498 57.21 131.739 57 131.156 56.58C130.573 56.16 130.218 55.5697 130.092 54.809L131.814 54.543C131.903 54.9163 132.099 55.2103 132.402 55.425C132.705 55.6397 133.088 55.747 133.55 55.747C133.956 55.747 134.269 55.6677 134.488 55.509C134.712 55.3457 134.824 55.124 134.824 54.844C134.824 54.6713 134.782 54.5337 134.698 54.431C134.619 54.3237 134.441 54.221 134.166 54.123C133.891 54.025 133.468 53.9013 132.899 53.752C132.264 53.584 131.76 53.4043 131.387 53.213C131.014 53.017 130.745 52.786 130.582 52.52C130.419 52.254 130.337 51.932 130.337 51.554C130.337 51.0827 130.461 50.672 130.708 50.322C130.955 49.972 131.301 49.7037 131.744 49.517C132.187 49.3257 132.71 49.23 133.312 49.23C133.9 49.23 134.42 49.321 134.873 49.503C135.33 49.685 135.699 49.944 135.979 50.28C136.259 50.616 136.432 51.0103 136.497 51.463L134.775 51.771C134.733 51.449 134.586 51.1947 134.334 51.008C134.087 50.8213 133.755 50.7163 133.34 50.693C132.943 50.6697 132.624 50.7303 132.381 50.875C132.138 51.015 132.017 51.2133 132.017 51.47C132.017 51.6147 132.066 51.7383 132.164 51.841C132.262 51.9437 132.458 52.0463 132.752 52.149C133.051 52.2517 133.494 52.3777 134.082 52.527C134.684 52.681 135.165 52.8583 135.524 53.059C135.888 53.255 136.149 53.4907 136.308 53.766C136.471 54.0413 136.553 54.375 136.553 54.767C136.553 55.5277 136.275 56.125 135.72 56.559C135.169 56.993 134.406 57.21 133.431 57.21Z" fill="white"/>
<path d="M16.84 83V74.36H21.88V75.428H17.908V78.146H21.16V79.214H17.908V83H16.84ZM23.2772 75.374V74.27H24.3452V75.374H23.2772ZM23.2772 83V76.52H24.3452V83H23.2772ZM30.9595 83V79.754C30.9595 79.446 30.9315 79.15 30.8755 78.866C30.8235 78.582 30.7295 78.328 30.5935 78.104C30.4615 77.876 30.2815 77.696 30.0535 77.564C29.8295 77.432 29.5455 77.366 29.2015 77.366C28.9335 77.366 28.6895 77.412 28.4695 77.504C28.2535 77.592 28.0675 77.728 27.9115 77.912C27.7555 78.096 27.6335 78.328 27.5455 78.608C27.4615 78.884 27.4195 79.21 27.4195 79.586L26.7175 79.37C26.7175 78.742 26.8295 78.204 27.0535 77.756C27.2815 77.304 27.5995 76.958 28.0075 76.718C28.4195 76.474 28.9035 76.352 29.4595 76.352C29.8795 76.352 30.2375 76.418 30.5335 76.55C30.8295 76.682 31.0755 76.858 31.2715 77.078C31.4675 77.294 31.6215 77.538 31.7335 77.81C31.8455 78.078 31.9235 78.352 31.9675 78.632C32.0155 78.908 32.0395 79.17 32.0395 79.418V83H30.9595ZM26.3395 83V76.52H27.2995V78.254H27.4195V83H26.3395ZM36.2848 83.18C35.6808 83.18 35.1628 83.03 34.7308 82.73C34.2988 82.426 33.9648 82.016 33.7288 81.5C33.4968 80.984 33.3808 80.402 33.3808 79.754C33.3808 79.106 33.4968 78.524 33.7288 78.008C33.9648 77.492 34.2988 77.086 34.7308 76.79C35.1628 76.49 35.6788 76.34 36.2788 76.34C36.8908 76.34 37.4048 76.488 37.8208 76.784C38.2368 77.08 38.5508 77.486 38.7628 78.002C38.9788 78.518 39.0868 79.102 39.0868 79.754C39.0868 80.398 38.9788 80.98 38.7628 81.5C38.5508 82.016 38.2368 82.426 37.8208 82.73C37.4048 83.03 36.8928 83.18 36.2848 83.18ZM36.4168 82.202C36.8528 82.202 37.2108 82.098 37.4908 81.89C37.7708 81.678 37.9768 81.388 38.1088 81.02C38.2448 80.648 38.3128 80.226 38.3128 79.754C38.3128 79.274 38.2448 78.852 38.1088 78.488C37.9768 78.12 37.7728 77.834 37.4968 77.63C37.2208 77.422 36.8708 77.318 36.4468 77.318C36.0068 77.318 35.6428 77.426 35.3548 77.642C35.0708 77.858 34.8588 78.15 34.7188 78.518C34.5828 78.886 34.5148 79.298 34.5148 79.754C34.5148 80.214 34.5848 80.63 34.7248 81.002C34.8648 81.37 35.0748 81.662 35.3548 81.878C35.6388 82.094 35.9928 82.202 36.4168 82.202ZM38.3128 83V78.23H38.1928V74.36H39.2668V83H38.3128ZM46.5102 83.18C45.8662 83.18 45.3102 83.034 44.8422 82.742C44.3782 82.45 44.0202 82.046 43.7682 81.53C43.5162 81.014 43.3902 80.422 43.3902 79.754C43.3902 79.074 43.5182 78.478 43.7742 77.966C44.0302 77.454 44.3922 77.056 44.8602 76.772C45.3282 76.484 45.8782 76.34 46.5102 76.34C47.1582 76.34 47.7162 76.486 48.1842 76.778C48.6522 77.066 49.0102 77.468 49.2582 77.984C49.5102 78.496 49.6362 79.086 49.6362 79.754C49.6362 80.43 49.5102 81.026 49.2582 81.542C49.0062 82.054 48.6462 82.456 48.1782 82.748C47.7102 83.036 47.1542 83.18 46.5102 83.18ZM46.5102 82.166C47.1822 82.166 47.6822 81.942 48.0102 81.494C48.3382 81.046 48.5022 80.466 48.5022 79.754C48.5022 79.022 48.3362 78.44 48.0042 78.008C47.6722 77.572 47.1742 77.354 46.5102 77.354C46.0582 77.354 45.6862 77.456 45.3942 77.66C45.1022 77.864 44.8842 78.146 44.7402 78.506C44.5962 78.866 44.5242 79.282 44.5242 79.754C44.5242 80.482 44.6922 81.066 45.0282 81.506C45.3642 81.946 45.8582 82.166 46.5102 82.166ZM53.6172 83.168C53.2012 83.168 52.8432 83.102 52.5432 82.97C52.2472 82.838 52.0012 82.662 51.8052 82.442C51.6092 82.222 51.4552 81.978 51.3432 81.71C51.2312 81.442 51.1512 81.168 51.1032 80.888C51.0592 80.608 51.0372 80.346 51.0372 80.102V76.52H52.1172V79.766C52.1172 80.07 52.1452 80.364 52.2012 80.648C52.2572 80.932 52.3512 81.188 52.4832 81.416C52.6192 81.644 52.7992 81.824 53.0232 81.956C53.2512 82.088 53.5352 82.154 53.8752 82.154C54.1432 82.154 54.3872 82.108 54.6072 82.016C54.8272 81.924 55.0152 81.788 55.1712 81.608C55.3272 81.424 55.4472 81.192 55.5312 80.912C55.6152 80.632 55.6572 80.306 55.6572 79.934L56.3592 80.15C56.3592 80.774 56.2452 81.312 56.0172 81.764C55.7932 82.216 55.4752 82.564 55.0632 82.808C54.6552 83.048 54.1732 83.168 53.6172 83.168ZM55.7772 83V81.266H55.6572V76.52H56.7312V83H55.7772ZM62.2291 83C61.8451 83.076 61.4651 83.106 61.0891 83.09C60.7171 83.078 60.3851 83.004 60.0931 82.868C59.8011 82.728 59.5791 82.512 59.4271 82.22C59.2991 81.964 59.2291 81.706 59.2171 81.446C59.2091 81.182 59.2051 80.884 59.2051 80.552V74.72H60.2731V80.504C60.2731 80.768 60.2751 80.994 60.2791 81.182C60.2871 81.37 60.3291 81.532 60.4051 81.668C60.5491 81.924 60.7771 82.074 61.0891 82.118C61.4051 82.162 61.7851 82.15 62.2291 82.082V83ZM57.8911 77.402V76.52H62.2291V77.402H57.8911ZM70.961 83V79.754C70.961 79.446 70.933 79.15 70.877 78.866C70.825 78.582 70.731 78.328 70.595 78.104C70.463 77.876 70.283 77.696 70.055 77.564C69.831 77.432 69.547 77.366 69.203 77.366C68.935 77.366 68.691 77.412 68.471 77.504C68.255 77.592 68.069 77.728 67.913 77.912C67.757 78.096 67.635 78.328 67.547 78.608C67.463 78.884 67.421 79.21 67.421 79.586L66.719 79.37C66.719 78.742 66.831 78.204 67.055 77.756C67.283 77.304 67.601 76.958 68.009 76.718C68.421 76.474 68.905 76.352 69.461 76.352C69.881 76.352 70.239 76.418 70.535 76.55C70.831 76.682 71.077 76.858 71.273 77.078C71.469 77.294 71.623 77.538 71.735 77.81C71.847 78.078 71.925 78.352 71.969 78.632C72.017 78.908 72.041 79.17 72.041 79.418V83H70.961ZM66.341 83V76.52H67.301V78.254H67.421V83H66.341ZM76.5023 83.18C75.8583 83.18 75.3023 83.034 74.8343 82.742C74.3703 82.45 74.0123 82.046 73.7603 81.53C73.5083 81.014 73.3823 80.422 73.3823 79.754C73.3823 79.074 73.5103 78.478 73.7663 77.966C74.0223 77.454 74.3843 77.056 74.8523 76.772C75.3203 76.484 75.8703 76.34 76.5023 76.34C77.1503 76.34 77.7083 76.486 78.1763 76.778C78.6443 77.066 79.0023 77.468 79.2503 77.984C79.5023 78.496 79.6283 79.086 79.6283 79.754C79.6283 80.43 79.5023 81.026 79.2503 81.542C78.9983 82.054 78.6383 82.456 78.1703 82.748C77.7023 83.036 77.1463 83.18 76.5023 83.18ZM76.5023 82.166C77.1743 82.166 77.6743 81.942 78.0023 81.494C78.3303 81.046 78.4943 80.466 78.4943 79.754C78.4943 79.022 78.3283 78.44 77.9963 78.008C77.6643 77.572 77.1663 77.354 76.5023 77.354C76.0503 77.354 75.6783 77.456 75.3863 77.66C75.0943 77.864 74.8763 78.146 74.7323 78.506C74.5883 78.866 74.5163 79.282 74.5163 79.754C74.5163 80.482 74.6843 81.066 75.0203 81.506C75.3563 81.946 75.8503 82.166 76.5023 82.166ZM82.295 83L80.315 76.514L81.377 76.52L82.823 81.26L84.281 76.52H85.223L86.675 81.26L88.127 76.52H89.183L87.203 83H86.315L84.749 78.074L83.183 83H82.295ZM93.9089 79.658V78.776H101.067L99.2189 76.928L99.7649 76.382L102.603 79.22L99.7649 82.058L99.2189 81.512L101.073 79.658H93.9089Z" fill="white"/>
<path d="M256.294 92.3573C250.078 91.7686 242.003 95.1521 238.55 96.98C237.239 92.9097 236.179 90.7352 239.457 85.463C243.224 88.5369 252.25 88.6839 256.544 88.54L256.294 92.3573Z" fill="#1C3BA4"/>
<ellipse cx="238.559" cy="91.1169" rx="5.92587" ry="2.17532" transform="rotate(-86.2415 238.559 91.1169)" fill="#1C3BA4"/>
<ellipse cx="238.11" cy="91.0876" rx="3.97558" ry="1.42521" transform="rotate(-86.2415 238.11 91.0876)" fill="#C6D4F1"/>
<ellipse cx="292.167" cy="95.1319" rx="46.3451" ry="46.2528" fill="#1C3BA4"/>
<path d="M267.568 67.8836C263.967 62.1288 255.707 57.395 251.847 55.623C254.493 51.8002 255.67 49.4476 262.388 48.7917C262.225 54.0759 268.065 61.9645 271.029 65.5763L267.568 67.8836Z" fill="#1C3BA4"/>
<ellipse cx="256.914" cy="51.7549" rx="6.44324" ry="2.36524" transform="rotate(-33.6892 256.914 51.7549)" fill="#1C3BA4"/>
<ellipse cx="256.642" cy="51.3472" rx="4.32268" ry="1.54964" transform="rotate(-33.6892 256.642 51.3472)" fill="#C6D4F1"/>
<path d="M279.9 56.1299C278.144 50.8658 279.455 43.1948 280.345 39.8385C276.558 39.5194 274.462 39.0376 270.554 42.9334C273.971 45.579 275.909 53.3653 276.645 57.1126L279.9 56.1299Z" fill="#1C3BA4"/>
<ellipse cx="5.26708" cy="1.93348" rx="5.26708" ry="1.93348" transform="matrix(-0.957329 0.288999 0.288999 0.957329 279.754 37.6489)" fill="#1C3BA4"/>
<ellipse cx="3.53361" cy="1.26676" rx="3.53361" ry="1.26676" transform="matrix(-0.957329 0.288999 0.288999 0.957329 278.171 38.4053)" fill="#C6D4F1"/>
<path d="M290.343 53.4383C292.231 47.5989 290.703 39.1297 289.684 35.4273C293.868 35.0354 296.181 34.4811 300.542 38.749C296.791 41.7097 294.729 50.3399 293.953 54.4914L290.343 53.4383Z" fill="#1C3BA4"/>
<ellipse cx="295.307" cy="36.684" rx="5.82475" ry="2.1382" transform="rotate(16.2645 295.307 36.684)" fill="#1C3BA4"/>
<ellipse cx="295.431" cy="36.2593" rx="3.90774" ry="1.40089" transform="rotate(16.2645 295.431 36.2593)" fill="#C6D4F1"/>
<path d="M308.426 60.1051C310.884 54.4818 317.642 49.1544 320.86 47.0584C317.987 43.9905 316.623 42.0425 310.528 42.346C311.374 47.0498 307.196 54.8779 305.025 58.5003L308.426 60.1051Z" fill="#1C3BA4"/>
<ellipse cx="5.82474" cy="2.1382" rx="5.82474" ry="2.1382" transform="matrix(-0.904363 -0.426765 -0.426765 0.904363 321.997 44.8228)" fill="#1C3BA4"/>
<ellipse cx="3.90774" cy="1.40089" rx="3.90774" ry="1.40089" transform="matrix(-0.904363 -0.426765 -0.426765 0.904363 320.137 44.2715)" fill="#C6D4F1"/>
<path d="M257.314 73.6918C252.678 72.162 245.933 73.3374 242.982 74.1306C242.691 70.7993 242.261 68.9571 245.677 65.5075C248.014 68.5062 254.87 70.1879 258.169 70.825L257.314 73.6918Z" fill="#1C3BA4"/>
<ellipse cx="244.009" cy="69.6624" rx="4.63406" ry="1.70111" transform="rotate(-73.3926 244.009 69.6624)" fill="#1C3BA4"/>
<ellipse cx="243.672" cy="69.5617" rx="3.10892" ry="1.11452" transform="rotate(-73.3926 243.672 69.5617)" fill="#C6D4F1"/>
<path d="M253.182 108.199C248.373 110.084 243.673 115.596 241.806 118.234C239.319 115.718 237.725 114.508 238.178 109.392C242.106 110.256 248.825 106.996 251.942 105.287L253.182 108.199Z" fill="#1C3BA4"/>
<circle cx="278.042" cy="77.7758" r="13.5712" fill="#A0B6EA"/>
<circle cx="312.108" cy="88.2079" r="8.49353" fill="#A0B6EA"/>
<circle cx="278.596" cy="111.75" r="10.4323" fill="#A0B6EA"/>
<circle cx="294.567" cy="60.8808" r="2.40034" fill="#C6D4F1"/>
<ellipse cx="306.015" cy="69.0976" rx="0.923209" ry="1.01553" fill="#C6D4F1"/>
<circle cx="254.5" cy="89.5004" r="1.66178" fill="#C6D4F1"/>
<circle cx="266.594" cy="95.6859" r="1.01553" fill="#C6D4F1"/>
<circle cx="258.747" cy="73.0675" r="1.47713" fill="#C6D4F1"/>
<circle cx="293.829" cy="98.3631" r="2.58499" fill="#C6D4F1"/>
<circle cx="255.977" cy="104.087" r="2.40034" fill="#C6D4F1"/>
<circle cx="298.445" cy="82.1146" r="1.47713" fill="#C6D4F1"/>
<path d="M231 68.8504C230.388 68.7923 229.592 69.1258 229.251 69.306C229.122 68.9048 229.018 68.6905 229.341 68.1708C229.712 68.4738 230.602 68.4883 231.025 68.4741L231 68.8504Z" fill="#1C3BA4"/>
<ellipse cx="229.252" cy="68.7281" rx="0.584062" ry="0.214403" transform="rotate(-86.2415 229.252 68.7281)" fill="#1C3BA4"/>
<ellipse cx="229.208" cy="68.7251" rx="0.391839" ry="0.140471" transform="rotate(-86.2415 229.208 68.7251)" fill="#C6D4F1"/>
<ellipse cx="234.536" cy="69.1239" rx="4.56784" ry="4.55874" fill="#1C3BA4"/>
<path d="M232.111 66.4382C231.756 65.871 230.942 65.4044 230.562 65.2298C230.823 64.853 230.939 64.6211 231.601 64.5565C231.585 65.0773 232.16 65.8548 232.452 66.2108L232.111 66.4382Z" fill="#1C3BA4"/>
<ellipse cx="231.061" cy="64.8485" rx="0.635055" ry="0.233121" transform="rotate(-33.6892 231.061 64.8485)" fill="#1C3BA4"/>
<ellipse cx="231.035" cy="64.8082" rx="0.426049" ry="0.152735" transform="rotate(-33.6892 231.035 64.8082)" fill="#C6D4F1"/>
<path d="M233.327 65.2797C233.154 64.7608 233.283 64.0048 233.371 63.674C232.997 63.6425 232.791 63.595 232.406 63.979C232.743 64.2398 232.933 65.0072 233.006 65.3765L233.327 65.2797Z" fill="#1C3BA4"/>
<ellipse cx="0.519131" cy="0.190567" rx="0.519131" ry="0.190567" transform="matrix(-0.957329 0.288999 0.288999 0.957329 233.312 63.4583)" fill="#1C3BA4"/>
<ellipse cx="0.348278" cy="0.124854" rx="0.348278" ry="0.124854" transform="matrix(-0.957329 0.288999 0.288999 0.957329 233.156 63.5327)" fill="#C6D4F1"/>
<path d="M234.356 65.0144C234.542 64.4389 234.392 63.6041 234.291 63.2392C234.704 63.2006 234.931 63.146 235.361 63.5666C234.992 63.8584 234.788 64.709 234.712 65.1182L234.356 65.0144Z" fill="#1C3BA4"/>
<ellipse cx="234.845" cy="63.3631" rx="0.574095" ry="0.210744" transform="rotate(16.2645 234.845 63.3631)" fill="#1C3BA4"/>
<ellipse cx="234.858" cy="63.3212" rx="0.385153" ry="0.138074" transform="rotate(16.2645 234.858 63.3212)" fill="#C6D4F1"/>
<path d="M236.138 65.6716C236.381 65.1173 237.047 64.5923 237.364 64.3857C237.081 64.0833 236.946 63.8913 236.346 63.9212C236.429 64.3848 236.017 65.1564 235.803 65.5134L236.138 65.6716Z" fill="#1C3BA4"/>
<ellipse cx="0.574095" cy="0.210744" rx="0.574095" ry="0.210744" transform="matrix(-0.904363 -0.426765 -0.426765 0.904363 237.476 64.1653)" fill="#1C3BA4"/>
<ellipse cx="0.385153" cy="0.138074" rx="0.385153" ry="0.138074" transform="matrix(-0.904363 -0.426765 -0.426765 0.904363 237.293 64.1108)" fill="#C6D4F1"/>
<path d="M237.357 66.4026C237.709 66.123 238.331 66.0107 238.611 65.9858C238.531 65.6881 238.51 65.515 238.104 65.3247C237.997 65.6585 237.457 66.0216 237.192 66.1815L237.357 66.4026Z" fill="#1C3BA4"/>
<ellipse cx="0.427308" cy="0.15686" rx="0.427308" ry="0.15686" transform="matrix(-0.598098 -0.801423 -0.801423 0.598098 238.762 65.8804)" fill="#1C3BA4"/>
<ellipse cx="0.286675" cy="0.10277" rx="0.286675" ry="0.10277" transform="matrix(-0.598098 -0.801423 -0.801423 0.598098 238.661 65.7805)" fill="#C6D4F1"/>
<path d="M238.144 67.7473C238.742 67.6712 239.431 67.1814 239.718 66.9361C239.928 67.2919 240.074 67.4744 239.876 68.0406C239.456 67.8307 238.603 68.0079 238.201 68.1124L238.144 67.7473Z" fill="#1C3BA4"/>
<ellipse cx="239.841" cy="67.4886" rx="0.572362" ry="0.210108" transform="rotate(81.098 239.841 67.4886)" fill="#1C3BA4"/>
<ellipse cx="239.884" cy="67.482" rx="0.38399" ry="0.137657" transform="rotate(81.098 239.884 67.482)" fill="#C6D4F1"/>
<path d="M238.747 69.1457C239.124 69.3228 239.707 69.2925 239.965 69.2556C239.955 69.5406 239.973 69.701 239.648 69.9581C239.481 69.6802 238.918 69.4674 238.645 69.3796L238.747 69.1457Z" fill="#1C3BA4"/>
<ellipse cx="239.832" cy="69.6234" rx="0.395273" ry="0.1451" transform="rotate(113.516 239.832 69.6234)" fill="#1C3BA4"/>
<ellipse cx="239.86" cy="69.6354" rx="0.265183" ry="0.0950656" transform="rotate(113.516 239.86 69.6354)" fill="#C6D4F1"/>
<path d="M237.843 70.8999C238.354 71.2447 239.215 71.3328 239.601 71.3374C239.522 71.7525 239.511 71.9912 238.978 72.2937C238.796 71.849 238.02 71.4097 237.641 71.2192L237.843 70.8999Z" fill="#1C3BA4"/>
<ellipse cx="239.323" cy="71.8457" rx="0.585409" ry="0.214897" transform="rotate(122.338 239.323 71.8457)" fill="#1C3BA4"/>
<ellipse cx="239.36" cy="71.8696" rx="0.392743" ry="0.140795" transform="rotate(122.338 239.36 71.8696)" fill="#C6D4F1"/>
<path d="M237.203 71.9903C237.424 72.5663 237.315 73.4244 237.233 73.8014C237.655 73.8184 237.89 73.8618 238.305 73.4102C237.913 73.133 237.66 72.2779 237.56 71.8653L237.203 71.9903Z" fill="#1C3BA4"/>
<ellipse cx="0.585409" cy="0.214897" rx="0.585409" ry="0.214897" transform="matrix(0.943781 -0.330571 -0.330571 -0.943781 237.309 74.0415)" fill="#1C3BA4"/>
<ellipse cx="0.392743" cy="0.140795" rx="0.392743" ry="0.140795" transform="matrix(0.943781 -0.330571 -0.330571 -0.943781 237.481 73.95)" fill="#C6D4F1"/>
<path d="M235.409 72.704C235.582 73.3725 235.355 74.3139 235.216 74.7231C235.684 74.7947 235.94 74.8721 236.458 74.4213C236.056 74.064 235.881 73.0809 235.821 72.6094L235.409 72.704Z" fill="#1C3BA4"/>
<ellipse cx="0.655495" cy="0.240625" rx="0.655495" ry="0.240625" transform="matrix(0.974693 -0.223549 -0.223549 -0.974693 235.271 75)" fill="#1C3BA4"/>
<ellipse cx="0.439762" cy="0.157651" rx="0.439762" ry="0.157651" transform="matrix(0.974693 -0.223549 -0.223549 -0.974693 235.474 74.9194)" fill="#C6D4F1"/>
<path d="M233.772 73.0705C233.763 73.5659 233.424 74.1724 233.249 74.4282C233.558 74.5681 233.72 74.6712 234.165 74.46C233.956 74.1354 234.026 73.4223 234.076 73.0849L233.772 73.0705Z" fill="#1C3BA4"/>
<ellipse cx="0.470311" cy="0.172646" rx="0.470311" ry="0.172646" transform="matrix(0.998866 0.0476108 0.0476108 -0.998866 233.233 74.6301)" fill="#1C3BA4"/>
<ellipse cx="0.315525" cy="0.113113" rx="0.315525" ry="0.113113" transform="matrix(0.998866 0.0476108 0.0476108 -0.998866 233.389 74.6138)" fill="#C6D4F1"/>
<path d="M231.101 67.0106C230.644 66.8598 229.979 66.9757 229.688 67.0538C229.659 66.7255 229.617 66.5439 229.954 66.2039C230.184 66.4995 230.86 66.6652 231.185 66.728L231.101 67.0106Z" fill="#1C3BA4"/>
<ellipse cx="229.789" cy="66.6134" rx="0.456739" ry="0.167664" transform="rotate(-73.3926 229.789 66.6134)" fill="#1C3BA4"/>
<ellipse cx="229.756" cy="66.6035" rx="0.30642" ry="0.109849" transform="rotate(-73.3926 229.756 66.6035)" fill="#C6D4F1"/>
<path d="M230.693 70.4118C230.22 70.5976 229.756 71.1409 229.572 71.4009C229.327 71.1529 229.17 71.0337 229.215 70.5295C229.602 70.6146 230.264 70.2932 230.571 70.1248L230.693 70.4118Z" fill="#1C3BA4"/>
<ellipse cx="229.357" cy="70.9737" rx="0.483193" ry="0.177375" transform="rotate(-113.058 229.357 70.9737)" fill="#1C3BA4"/>
<ellipse cx="229.324" cy="70.9882" rx="0.324167" ry="0.116211" transform="rotate(-113.058 229.324 70.9882)" fill="#C6D4F1"/>
<path d="M231.452 71.7828C230.968 72.1559 230.616 72.9376 230.491 73.2991C230.125 73.0954 229.904 73.0106 229.786 72.4142C230.261 72.3826 230.917 71.7901 231.215 71.4929L231.452 71.7828Z" fill="#1C3BA4"/>
<ellipse cx="230.1" cy="72.8789" rx="0.580165" ry="0.212972" transform="rotate(-129.272 230.1 72.8789)" fill="#1C3BA4"/>
<ellipse cx="230.066" cy="72.9067" rx="0.389225" ry="0.139533" transform="rotate(-129.272 230.066 72.9067)" fill="#C6D4F1"/>
<path d="M232.222 72.8223C232.1 73.3239 231.618 73.8637 231.382 74.0842C231.664 74.2965 231.806 74.438 232.306 74.3241C232.167 73.9467 232.4 73.2374 232.527 72.9057L232.222 72.8223Z" fill="#1C3BA4"/>
<ellipse cx="0.489933" cy="0.179849" rx="0.489933" ry="0.179849" transform="matrix(0.964606 0.263697 0.263697 -0.964606 231.32 74.2859)" fill="#1C3BA4"/>
<ellipse cx="0.328689" cy="0.117832" rx="0.328689" ry="0.117832" transform="matrix(0.964606 0.263697 0.263697 -0.964606 231.482 74.3044)" fill="#C6D4F1"/>
<circle cx="233.144" cy="67.413" r="1.3376" fill="#A0B6EA"/>
<circle cx="236.501" cy="68.4414" r="0.837134" fill="#A0B6EA"/>
<circle cx="233.198" cy="70.7616" r="1.02822" fill="#A0B6EA"/>
<circle cx="235.564" cy="70.5796" r="0.409468" fill="#1C3BA4"/>
<circle cx="234.772" cy="65.7481" r="0.236581" fill="#C6D4F1"/>
<ellipse cx="235.901" cy="66.5579" rx="0.0909929" ry="0.100092" fill="#C6D4F1"/>
<circle cx="232.589" cy="72.3539" r="0.0909929" fill="#C6D4F1"/>
<circle cx="230.823" cy="68.5688" r="0.163787" fill="#C6D4F1"/>
<circle cx="232.015" cy="69.1785" r="0.100092" fill="#C6D4F1"/>
<circle cx="231.242" cy="66.9491" r="0.145589" fill="#C6D4F1"/>
<circle cx="234.7" cy="69.4423" r="0.25478" fill="#C6D4F1"/>
<circle cx="230.969" cy="70.0064" r="0.236581" fill="#C6D4F1"/>
<circle cx="234.809" cy="71.6626" r="0.200184" fill="#C6D4F1"/>
<circle cx="231.378" cy="71.253" r="0.172886" fill="#C6D4F1"/>
<ellipse cx="233.954" cy="72.6908" rx="0.236581" ry="0.245681" fill="#C6D4F1"/>
<circle cx="235.155" cy="67.8409" r="0.145589" fill="#C6D4F1"/>
<ellipse cx="237.511" cy="66.5486" rx="0.245681" ry="0.236581" fill="#C6D4F1"/>
<circle cx="237.912" cy="68.7234" r="0.136489" fill="#C6D4F1"/>
<circle cx="238.358" cy="70.1702" r="0.200184" fill="#C6D4F1"/>
<circle cx="0.109191" cy="0.109191" r="0.109191" transform="matrix(1 0 0 -1 236.92 70.1521)" fill="#C6D4F1"/>
<circle cx="237.029" cy="71.4078" r="0.145589" fill="#C6D4F1"/>
<circle cx="235.983" cy="72.5997" r="0.209284" fill="#C6D4F1"/>
<path d="M261 19.8504C260.388 19.7923 259.592 20.1258 259.251 20.306C259.122 19.9048 259.018 19.6905 259.341 19.1708C259.712 19.4738 260.602 19.4883 261.025 19.4741L261 19.8504Z" fill="#1C3BA4"/>
<ellipse cx="259.252" cy="19.7281" rx="0.584062" ry="0.214403" transform="rotate(-86.2415 259.252 19.7281)" fill="#1C3BA4"/>
<ellipse cx="259.208" cy="19.7251" rx="0.391839" ry="0.140471" transform="rotate(-86.2415 259.208 19.7251)" fill="#C6D4F1"/>
<ellipse cx="264.536" cy="20.1239" rx="4.56784" ry="4.55874" fill="#1C3BA4"/>
<path d="M262.111 17.4382C261.756 16.871 260.942 16.4044 260.562 16.2298C260.823 15.853 260.939 15.6211 261.601 15.5565C261.585 16.0773 262.16 16.8548 262.452 17.2108L262.111 17.4382Z" fill="#1C3BA4"/>
<ellipse cx="261.061" cy="15.8485" rx="0.635055" ry="0.233121" transform="rotate(-33.6892 261.061 15.8485)" fill="#1C3BA4"/>
<ellipse cx="261.034" cy="15.8082" rx="0.426049" ry="0.152735" transform="rotate(-33.6892 261.034 15.8082)" fill="#C6D4F1"/>
<path d="M263.327 16.2797C263.154 15.7608 263.283 15.0048 263.371 14.674C262.997 14.6425 262.791 14.595 262.406 14.979C262.743 15.2398 262.933 16.0072 263.006 16.3765L263.327 16.2797Z" fill="#1C3BA4"/>
<ellipse cx="0.519131" cy="0.190567" rx="0.519131" ry="0.190567" transform="matrix(-0.957329 0.288999 0.288999 0.957329 263.312 14.4583)" fill="#1C3BA4"/>
<ellipse cx="0.348278" cy="0.124854" rx="0.348278" ry="0.124854" transform="matrix(-0.957329 0.288999 0.288999 0.957329 263.156 14.5327)" fill="#C6D4F1"/>
<path d="M264.356 16.0144C264.542 15.4389 264.392 14.6041 264.291 14.2392C264.704 14.2006 264.931 14.146 265.361 14.5666C264.992 14.8584 264.788 15.709 264.712 16.1182L264.356 16.0144Z" fill="#1C3BA4"/>
<ellipse cx="264.845" cy="14.3631" rx="0.574095" ry="0.210744" transform="rotate(16.2645 264.845 14.3631)" fill="#1C3BA4"/>
<ellipse cx="264.858" cy="14.3212" rx="0.385153" ry="0.138074" transform="rotate(16.2645 264.858 14.3212)" fill="#C6D4F1"/>
<path d="M266.138 16.6716C266.381 16.1173 267.047 15.5923 267.364 15.3857C267.081 15.0833 266.946 14.8913 266.346 14.9212C266.429 15.3848 266.017 16.1564 265.803 16.5134L266.138 16.6716Z" fill="#1C3BA4"/>
<ellipse cx="0.574095" cy="0.210744" rx="0.574095" ry="0.210744" transform="matrix(-0.904363 -0.426765 -0.426765 0.904363 267.476 15.1653)" fill="#1C3BA4"/>
<ellipse cx="0.385153" cy="0.138074" rx="0.385153" ry="0.138074" transform="matrix(-0.904363 -0.426765 -0.426765 0.904363 267.293 15.1108)" fill="#C6D4F1"/>
<path d="M267.357 17.4026C267.709 17.123 268.331 17.0107 268.611 16.9858C268.531 16.6881 268.51 16.515 268.104 16.3247C267.997 16.6585 267.457 17.0216 267.192 17.1815L267.357 17.4026Z" fill="#1C3BA4"/>
<ellipse cx="0.427308" cy="0.15686" rx="0.427308" ry="0.15686" transform="matrix(-0.598098 -0.801423 -0.801423 0.598098 268.762 16.8804)" fill="#1C3BA4"/>
<ellipse cx="0.286675" cy="0.10277" rx="0.286675" ry="0.10277" transform="matrix(-0.598098 -0.801423 -0.801423 0.598098 268.661 16.7805)" fill="#C6D4F1"/>
<path d="M268.144 18.7473C268.742 18.6712 269.431 18.1814 269.718 17.9361C269.928 18.2919 270.074 18.4744 269.876 19.0406C269.456 18.8307 268.603 19.0079 268.201 19.1124L268.144 18.7473Z" fill="#1C3BA4"/>
<ellipse cx="269.841" cy="18.4886" rx="0.572362" ry="0.210108" transform="rotate(81.098 269.841 18.4886)" fill="#1C3BA4"/>
<ellipse cx="269.884" cy="18.482" rx="0.38399" ry="0.137657" transform="rotate(81.098 269.884 18.482)" fill="#C6D4F1"/>
<path d="M268.747 20.1457C269.124 20.3228 269.707 20.2925 269.965 20.2556C269.955 20.5406 269.973 20.701 269.648 20.9581C269.481 20.6802 268.918 20.4674 268.645 20.3796L268.747 20.1457Z" fill="#1C3BA4"/>
<ellipse cx="269.832" cy="20.6234" rx="0.395273" ry="0.1451" transform="rotate(113.516 269.832 20.6234)" fill="#1C3BA4"/>
<ellipse cx="269.859" cy="20.6354" rx="0.265183" ry="0.0950656" transform="rotate(113.516 269.859 20.6354)" fill="#C6D4F1"/>
<path d="M267.843 21.8999C268.354 22.2447 269.215 22.3328 269.601 22.3374C269.522 22.7525 269.511 22.9912 268.978 23.2937C268.796 22.849 268.02 22.4097 267.641 22.2192L267.843 21.8999Z" fill="#1C3BA4"/>
<ellipse cx="269.323" cy="22.8457" rx="0.585409" ry="0.214897" transform="rotate(122.338 269.323 22.8457)" fill="#1C3BA4"/>
<ellipse cx="269.36" cy="22.8696" rx="0.392743" ry="0.140795" transform="rotate(122.338 269.36 22.8696)" fill="#C6D4F1"/>
<path d="M267.203 22.9903C267.424 23.5663 267.315 24.4244 267.233 24.8014C267.655 24.8184 267.89 24.8618 268.305 24.4102C267.913 24.133 267.66 23.2779 267.56 22.8653L267.203 22.9903Z" fill="#1C3BA4"/>
<ellipse cx="0.585409" cy="0.214897" rx="0.585409" ry="0.214897" transform="matrix(0.943781 -0.330571 -0.330571 -0.943781 267.309 25.0415)" fill="#1C3BA4"/>
<ellipse cx="0.392743" cy="0.140795" rx="0.392743" ry="0.140795" transform="matrix(0.943781 -0.330571 -0.330571 -0.943781 267.481 24.95)" fill="#C6D4F1"/>
<path d="M265.409 23.704C265.582 24.3725 265.355 25.3139 265.216 25.7231C265.684 25.7947 265.94 25.8721 266.458 25.4213C266.056 25.064 265.881 24.0809 265.821 23.6094L265.409 23.704Z" fill="#1C3BA4"/>
<ellipse cx="0.655495" cy="0.240625" rx="0.655495" ry="0.240625" transform="matrix(0.974693 -0.223549 -0.223549 -0.974693 265.271 26)" fill="#1C3BA4"/>
<ellipse cx="0.439762" cy="0.157651" rx="0.439762" ry="0.157651" transform="matrix(0.974693 -0.223549 -0.223549 -0.974693 265.474 25.9194)" fill="#C6D4F1"/>
<path d="M263.772 24.0705C263.763 24.5659 263.424 25.1724 263.249 25.4282C263.558 25.5681 263.72 25.6712 264.165 25.46C263.956 25.1354 264.026 24.4223 264.076 24.0849L263.772 24.0705Z" fill="#1C3BA4"/>
<ellipse cx="0.470311" cy="0.172646" rx="0.470311" ry="0.172646" transform="matrix(0.998866 0.0476108 0.0476108 -0.998866 263.233 25.6301)" fill="#1C3BA4"/>
<ellipse cx="0.315525" cy="0.113113" rx="0.315525" ry="0.113113" transform="matrix(0.998866 0.0476108 0.0476108 -0.998866 263.389 25.6138)" fill="#C6D4F1"/>
<path d="M261.101 18.0106C260.644 17.8598 259.979 17.9757 259.688 18.0538C259.659 17.7255 259.617 17.5439 259.954 17.2039C260.184 17.4995 260.86 17.6652 261.185 17.728L261.101 18.0106Z" fill="#1C3BA4"/>
<ellipse cx="259.789" cy="17.6134" rx="0.456739" ry="0.167664" transform="rotate(-73.3926 259.789 17.6134)" fill="#1C3BA4"/>
<ellipse cx="259.756" cy="17.6035" rx="0.30642" ry="0.109849" transform="rotate(-73.3926 259.756 17.6035)" fill="#C6D4F1"/>
<path d="M260.693 21.4118C260.22 21.5976 259.756 22.1409 259.572 22.4009C259.327 22.1529 259.17 22.0337 259.215 21.5295C259.602 21.6146 260.264 21.2932 260.571 21.1248L260.693 21.4118Z" fill="#1C3BA4"/>
<ellipse cx="259.357" cy="21.9737" rx="0.483193" ry="0.177375" transform="rotate(-113.058 259.357 21.9737)" fill="#1C3BA4"/>
<ellipse cx="259.324" cy="21.9882" rx="0.324167" ry="0.116211" transform="rotate(-113.058 259.324 21.9882)" fill="#C6D4F1"/>
<path d="M261.452 22.7828C260.968 23.1559 260.616 23.9376 260.491 24.2991C260.125 24.0954 259.904 24.0106 259.786 23.4142C260.261 23.3826 260.917 22.7901 261.215 22.4929L261.452 22.7828Z" fill="#1C3BA4"/>
<ellipse cx="260.1" cy="23.8789" rx="0.580165" ry="0.212972" transform="rotate(-129.272 260.1 23.8789)" fill="#1C3BA4"/>
<ellipse cx="260.066" cy="23.9067" rx="0.389225" ry="0.139533" transform="rotate(-129.272 260.066 23.9067)" fill="#C6D4F1"/>
<path d="M262.222 23.8223C262.1 24.3239 261.618 24.8637 261.382 25.0842C261.664 25.2965 261.806 25.438 262.306 25.3241C262.167 24.9467 262.4 24.2374 262.527 23.9057L262.222 23.8223Z" fill="#1C3BA4"/>
<ellipse cx="0.489933" cy="0.179849" rx="0.489933" ry="0.179849" transform="matrix(0.964606 0.263697 0.263697 -0.964606 261.32 25.2859)" fill="#1C3BA4"/>
<ellipse cx="0.328689" cy="0.117832" rx="0.328689" ry="0.117832" transform="matrix(0.964606 0.263697 0.263697 -0.964606 261.482 25.3044)" fill="#C6D4F1"/>
<circle cx="263.144" cy="18.413" r="1.3376" fill="#A0B6EA"/>
<circle cx="266.501" cy="19.4414" r="0.837134" fill="#A0B6EA"/>
<circle cx="263.198" cy="21.7616" r="1.02822" fill="#A0B6EA"/>
<circle cx="265.564" cy="21.5796" r="0.409468" fill="#1C3BA4"/>
<circle cx="264.772" cy="16.7481" r="0.236581" fill="#C6D4F1"/>
<ellipse cx="265.901" cy="17.5579" rx="0.0909929" ry="0.100092" fill="#C6D4F1"/>
<circle cx="262.589" cy="23.3539" r="0.0909929" fill="#C6D4F1"/>
<circle cx="260.823" cy="19.5688" r="0.163787" fill="#C6D4F1"/>
<circle cx="262.015" cy="20.1785" r="0.100092" fill="#C6D4F1"/>
<circle cx="261.242" cy="17.9491" r="0.145589" fill="#C6D4F1"/>
<circle cx="264.7" cy="20.4423" r="0.25478" fill="#C6D4F1"/>
<circle cx="260.969" cy="21.0064" r="0.236581" fill="#C6D4F1"/>
<circle cx="264.809" cy="22.6626" r="0.200184" fill="#C6D4F1"/>
<circle cx="261.378" cy="22.253" r="0.172886" fill="#C6D4F1"/>
<ellipse cx="263.954" cy="23.6907" rx="0.236581" ry="0.245681" fill="#C6D4F1"/>
<circle cx="265.155" cy="18.8409" r="0.145589" fill="#C6D4F1"/>
<ellipse cx="267.511" cy="17.5486" rx="0.245681" ry="0.236581" fill="#C6D4F1"/>
<circle cx="267.912" cy="19.7234" r="0.136489" fill="#C6D4F1"/>
<circle cx="268.358" cy="21.1702" r="0.200184" fill="#C6D4F1"/>
<circle cx="0.109191" cy="0.109191" r="0.109191" transform="matrix(1 0 0 -1 266.92 21.1521)" fill="#C6D4F1"/>
<circle cx="267.029" cy="22.4078" r="0.145589" fill="#C6D4F1"/>
<circle cx="265.983" cy="23.5997" r="0.209284" fill="#C6D4F1"/>
</g>
<defs>
<clipPath id="clip0_1614_6611">
<path d="M0 12C0 5.37259 5.37258 0 12 0H300C306.627 0 312 5.37258 312 12V92C312 98.6274 306.627 104 300 104H12C5.37259 104 0 98.6274 0 92V12Z" fill="white"/>
</clipPath>
</defs>
</svg>
