<svg width="32" height="32" viewBox="0 0 32 32" fill="none" xmlns="http://www.w3.org/2000/svg">
<path opacity="0.4" d="M20.0133 19.6667V29.32L4.01335 29.3467V19.6667L4 17.6667V9.42673C4 8.53339 4.45335 7.70668 5.18669 7.21335L10.52 3.65337C11.4134 3.05337 12.5866 3.05337 13.48 3.65337L18.8133 7.21335C19.56 7.70668 20 8.53339 20 9.42673V17.6667L20.0133 19.6667Z" fill="#F04438"/>
<path d="M29.3333 28.3334H27.64V24.3334C28.9066 23.9201 29.8267 22.7334 29.8267 21.3334V18.6667C29.8267 16.9201 28.4 15.4934 26.6533 15.4934C24.9066 15.4934 23.48 16.9201 23.48 18.6667V21.3334C23.48 22.7201 24.3866 23.8934 25.6266 24.3201V28.3334H2.66666C2.11999 28.3334 1.66666 28.7867 1.66666 29.3334C1.66666 29.8801 2.11999 30.3334 2.66666 30.3334H26.5733C26.6 30.3334 26.6133 30.3468 26.64 30.3468C26.6666 30.3468 26.68 30.3334 26.7067 30.3334H29.3333C29.88 30.3334 30.3333 29.8801 30.3333 29.3334C30.3333 28.7867 29.88 28.3334 29.3333 28.3334Z" fill="#F04438"/>
<path d="M20.0133 19.6667H4.01335L4 17.6667H20L20.0133 19.6667Z" fill="#F04438"/>
<path d="M12 30.3333C11.4533 30.3333 11 29.8799 11 29.3333V24.3333C11 23.7866 11.4533 23.3333 12 23.3333C12.5467 23.3333 13 23.7866 13 24.3333V29.3333C13 29.8799 12.5467 30.3333 12 30.3333Z" fill="#F04438"/>
<path d="M12 14.3334C13.2887 14.3334 14.3333 13.2887 14.3333 12.0001C14.3333 10.7114 13.2887 9.66675 12 9.66675C10.7113 9.66675 9.66666 10.7114 9.66666 12.0001C9.66666 13.2887 10.7113 14.3334 12 14.3334Z" fill="#F04438"/>
</svg>
