<svg width="32" height="32" viewBox="0 0 32 32" fill="none" xmlns="http://www.w3.org/2000/svg">
<path d="M27.96 1.33325H24.04C22.3467 1.33325 21.3333 2.34659 21.3333 4.03992V7.95992C21.3333 9.65325 22.3467 10.6666 24.04 10.6666H27.96C29.6533 10.6666 30.6667 9.65325 30.6667 7.95992V4.03992C30.6667 2.34659 29.6533 1.33325 27.96 1.33325ZM28.8133 6.23992C28.32 7.81325 26.6 8.66659 26 8.66659C25.4 8.66659 23.6933 7.83992 23.1867 6.23992C23.1067 5.99992 23.0667 5.73325 23.0667 5.47992C23.0667 4.61325 23.5067 3.71992 24.4267 3.42659C24.9733 3.25325 25.56 3.34659 25.9733 3.69325C26.4 3.35992 26.9867 3.25325 27.5467 3.42659C28.7733 3.81325 29.16 5.18659 28.8133 6.23992Z" fill="#EF6820"/>
<path opacity="0.4" d="M27.96 10.6667H24.04C22.3467 10.6667 21.3333 9.65341 21.3333 7.96008V4.04008C21.3333 3.50675 21.44 3.05341 21.6267 2.66675H9.33334C5.65334 2.66675 2.66667 5.64008 2.66667 9.30675V17.2801V18.6134C2.66667 22.2801 5.65334 25.2534 9.33334 25.2534H11.3333C11.6933 25.2534 12.1733 25.4934 12.4 25.7867L14.4 28.4401C15.28 29.6134 16.72 29.6134 17.6 28.4401L19.6 25.7867C19.8533 25.4534 20.2533 25.2534 20.6667 25.2534H22.6667C26.3467 25.2534 29.3333 22.2801 29.3333 18.6134V10.3601C28.9467 10.5601 28.4933 10.6667 27.96 10.6667Z" fill="#EF6820"/>
<path d="M16 15.9999C15.2533 15.9999 14.6667 15.3999 14.6667 14.6666C14.6667 13.9333 15.2667 13.3333 16 13.3333C16.7333 13.3333 17.3333 13.9333 17.3333 14.6666C17.3333 15.3999 16.7467 15.9999 16 15.9999Z" fill="#EF6820"/>
<path d="M21.3333 15.9999C20.5867 15.9999 20 15.3999 20 14.6666C20 13.9333 20.6 13.3333 21.3333 13.3333C22.0667 13.3333 22.6667 13.9333 22.6667 14.6666C22.6667 15.3999 22.08 15.9999 21.3333 15.9999Z" fill="#EF6820"/>
<path d="M10.6667 15.9999C9.92 15.9999 9.33333 15.3999 9.33333 14.6666C9.33333 13.9333 9.93333 13.3333 10.6667 13.3333C11.4 13.3333 12 13.9333 12 14.6666C12 15.3999 11.4133 15.9999 10.6667 15.9999Z" fill="#EF6820"/>
</svg>
